<?xml version="1.0" encoding="UTF-8" standalone="no"?>
<!-- Created with Inkscape (http://www.inkscape.org/) -->

<svg
   xmlns:dc="http://purl.org/dc/elements/1.1/"
   xmlns:cc="http://creativecommons.org/ns#"
   xmlns:rdf="http://www.w3.org/1999/02/22-rdf-syntax-ns#"
   xmlns:svg="http://www.w3.org/2000/svg"
   xmlns="http://www.w3.org/2000/svg"
   xmlns:sodipodi="http://sodipodi.sourceforge.net/DTD/sodipodi-0.dtd"
   xmlns:inkscape="http://www.inkscape.org/namespaces/inkscape"
   width="210mm"
   height="210mm"
   viewBox="0 0 744.09449 744.09448"
   id="svg2"
   version="1.1"
   inkscape:version="0.91 r13725"
   sodipodi:docname="logo.svg"
   inkscape:export-filename="C:\Projets\TicketResto\TicketResto.PhoneApp\Assets\StoreLogo.scale-240.png"
   inkscape:export-xdpi="14.51"
   inkscape:export-ydpi="14.51">
  <defs
     id="defs4" />
  <sodipodi:namedview
     id="base"
     pagecolor="#ffffff"
     bordercolor="#666666"
     borderopacity="1.0"
     inkscape:pageopacity="0.0"
     inkscape:pageshadow="2"
     inkscape:zoom="0.7"
     inkscape:cx="736.10501"
     inkscape:cy="545.51385"
     inkscape:document-units="px"
     inkscape:current-layer="layer1"
     showgrid="false"
     inkscape:window-width="2498"
     inkscape:window-height="1417"
     inkscape:window-x="-8"
     inkscape:window-y="-8"
     inkscape:window-maximized="1" />
  <metadata
     id="metadata7">
    <rdf:RDF>
      <cc:Work
         rdf:about="">
        <dc:format>image/svg+xml</dc:format>
        <dc:type
           rdf:resource="http://purl.org/dc/dcmitype/StillImage" />
        <dc:title />
      </cc:Work>
    </rdf:RDF>
  </metadata>
  <g
     inkscape:label="Calque 1"
     inkscape:groupmode="layer"
     id="layer1"
     transform="translate(0,-308.26772)">
    <path
       style="fill:#ffffff;fill-opacity:1;fill-rule:nonzero;stroke:#ffffff;stroke-width:4.00852537;stroke-miterlimit:4;stroke-dasharray:none;stroke-opacity:1"
       d="m 337.60695,971.46578 c -2.19884,-0.17219 -10.19456,-0.74089 -17.7683,-1.26375 -66.79477,-4.61129 -119.78204,-19.28546 -128.40581,-35.56038 -5.413,-10.21542 4.50694,-20.33381 28.41548,-28.98387 22.52517,-8.1496 57.23304,-14.26921 101.76718,-17.94338 21.27856,-1.75555 95.31726,-1.47529 116.38238,0.44053 51.94027,4.72386 87.38715,12.15597 108.30175,22.70763 9.42521,4.75513 13.80186,8.21288 16.19862,12.79775 10.57628,20.23196 -37.09377,38.3193 -121.83507,46.22765 -13.67623,1.2763 -91.66076,2.47027 -103.05623,1.57782 z m 23.98724,-112.77439 c -32.52406,-2.21963 -66.5041,-12.05654 -94.44827,-27.34183 -19.40501,-10.61442 -35.63135,-22.83566 -51.73374,-38.96447 -33.61748,-33.6727 -53.42962,-72.09272 -61.86028,-119.96058 -2.65372,-15.06733 -2.91734,-50.15841 -0.48764,-64.91015 6.85404,-41.61377 22.38998,-76.28862 48.22178,-107.6267 7.96124,-9.6583 26.74076,-27.64606 36.81837,-35.26613 65.80219,-49.75543 153.40615,-60.39597 228.76703,-27.78644 10.15077,4.39238 25.24655,12.63641 28.78057,15.7175 1.65911,1.4465 3.29798,2.46029 3.64192,2.25287 0.34384,-0.20742 1.15287,0.58496 1.79767,1.76082 0.6448,1.17589 1.66182,2.13798 2.25991,2.13798 0.59809,0 1.319,0.58884 1.60199,1.30856 0.28299,0.71971 0.88175,1.20741 1.33055,1.08377 0.72805,-0.20052 6.55727,4.31367 12.18653,9.43722 1.12323,1.02236 2.33004,1.6076 2.68191,1.30052 0.35175,-0.30706 0.40252,0.0887 0.11309,0.87948 -0.37413,1.02122 0.0995,1.59119 1.63525,1.96731 1.18905,0.29124 2.16185,1.04473 2.16185,1.67438 0,0.62966 0.99949,1.58926 2.22101,2.13244 1.22161,0.54318 2.22113,1.5812 2.22113,2.30671 0,0.72551 0.35367,1.31912 0.78606,1.31912 1.10897,0 -156.57653,155.15153 -153.61866,159.05887 1.35012,1.78358 -0.72754,0.27258 -0.28111,0.004 0.44641,-0.26924 1.76973,-1.34647 1.66557,-0.95337 -0.33626,1.26836 -5.80707,-1.13323 -3.04476,0.97508 1.4761,1.12661 3.20003,-1.22306 15.62178,-9.51657 20.99896,-14.02017 -16.55166,10.04224 -16.12232,10.04224 0.42933,0 189.92072,-123.76331 190.52536,-122.33879 0.60465,1.42453 1.4527,2.37688 1.88464,2.11638 0.43183,-0.26051 0.83527,-0.0605 0.89635,0.44451 0.0611,0.50501 0.16094,1.32259 0.22211,1.81685 0.0611,0.49426 0.55094,1.17703 1.08876,1.51728 1.47157,0.93114 5.12391,6.89054 10.04051,16.38288 15.86712,30.63401 23.30296,61.73653 23.28161,97.38178 -0.0215,34.96277 -7.31564,65.95919 -22.7678,96.744 -28.54022,56.86013 -81.40048,99.32668 -144.3502,115.96742 -22.2009,5.86881 -50.44492,8.52539 -73.73841,6.93571 z"
       id="path3347"
       inkscape:connector-curvature="0"
       sodipodi:nodetypes="sssssssssscsssssssscssccccccscsscccssssccccscsscc" />
  </g>
</svg>
