<?xml version="1.0" encoding="UTF-8" standalone="no"?>
<!-- Created with Inkscape (http://www.inkscape.org/) -->

<svg
   xmlns:dc="http://purl.org/dc/elements/1.1/"
   xmlns:cc="http://creativecommons.org/ns#"
   xmlns:rdf="http://www.w3.org/1999/02/22-rdf-syntax-ns#"
   xmlns:svg="http://www.w3.org/2000/svg"
   xmlns="http://www.w3.org/2000/svg"
   xmlns:sodipodi="http://sodipodi.sourceforge.net/DTD/sodipodi-0.dtd"
   xmlns:inkscape="http://www.inkscape.org/namespaces/inkscape"
   width="210mm"
   height="210mm"
   viewBox="0 0 744.09449 744.09448"
   id="svg2"
   version="1.1"
   inkscape:version="0.91 r13725"
   sodipodi:docname="logo.svg"
   inkscape:export-filename="C:\Projets\TicketResto\TicketResto.PhoneApp\Assets\StoreLogo.scale-240.png"
   inkscape:export-xdpi="14.51"
   inkscape:export-ydpi="14.51">
  <defs
     id="defs4" />
  <sodipodi:namedview
     id="base"
     pagecolor="#ffffff"
     bordercolor="#666666"
     borderopacity="1.0"
     inkscape:pageopacity="0.0"
     inkscape:pageshadow="2"
     inkscape:zoom="0.7"
     inkscape:cx="957.53358"
     inkscape:cy="545.51385"
     inkscape:document-units="px"
     inkscape:current-layer="layer1"
     showgrid="false"
     inkscape:window-width="2498"
     inkscape:window-height="1417"
     inkscape:window-x="-8"
     inkscape:window-y="-8"
     inkscape:window-maximized="1" />
  <metadata
     id="metadata7">
    <rdf:RDF>
      <cc:Work
         rdf:about="">
        <dc:format>image/svg+xml</dc:format>
        <dc:type
           rdf:resource="http://purl.org/dc/dcmitype/StillImage" />
        <dc:title></dc:title>
      </cc:Work>
    </rdf:RDF>
  </metadata>
  <g
     inkscape:label="Calque 1"
     inkscape:groupmode="layer"
     id="layer1"
     transform="translate(0,-308.26772)">
    <g
       id="g5596"
       style="fill:#ffffff;fill-opacity:1;stroke:#ffffff;stroke-opacity:1"
       transform="matrix(0.96122001,0,0,0.90134837,15.185702,305.30009)">
      <path
         sodipodi:nodetypes="sssssssssscsssssssscssccccccscsscccssssccccscsscc"
         inkscape:connector-curvature="0"
         id="path3347"
         d="m 323.70237,720.90789 c -2.66099,-0.22138 -12.33723,-0.95252 -21.5028,-1.62473 -80.83357,-5.92849 -144.9576,-24.79428 -155.39389,-45.71807 -6.55069,-13.13342 5.45419,-26.14208 34.38778,-37.26299 27.25947,-10.4775 69.26217,-18.34516 123.15641,-23.06885 25.75085,-2.25701 115.35086,-1.89669 140.84341,0.56636 62.85697,6.07321 105.754,15.62829 131.06438,29.19399 11.4062,6.11341 16.70272,10.55885 19.60323,16.45338 12.79918,26.01113 -44.89007,49.26506 -147.44214,59.43238 -16.55066,1.64089 -110.92582,3.1759 -124.71638,2.02853 z M 352.73121,575.91994 C 313.3713,573.06628 272.24941,560.41951 238.43198,540.76803 214.94847,527.12164 195.31171,511.40944 175.82495,490.6735 135.14182,447.38234 111.1656,397.98778 100.96299,336.44666 c -3.211467,-19.37125 -3.530487,-64.48595 -0.59012,-83.45148 8.2946,-53.50057 27.09586,-98.08016 58.35694,-138.36983 9.6345,-12.41717 32.36108,-35.543056 44.55677,-45.339764 79.63237,-63.9678883 185.64876,-77.6478479 276.84884,-35.72353 12.28425,5.647042 30.55282,16.245954 34.82962,20.207136 2.00782,1.859694 3.99113,3.163071 4.40737,2.8964 0.4161,-0.266671 1.39517,0.752048 2.1755,2.2638 0.78032,1.511769 2.0111,2.748664 2.73489,2.748664 0.7238,0 1.59623,0.757062 1.93869,1.682355 0.34248,0.925293 1.06708,1.552304 1.61021,1.393345 0.88106,-0.25779 7.93546,5.545853 14.74787,12.132928 1.3593,1.314388 2.81976,2.066797 3.24558,1.672009 0.42568,-0.394775 0.48713,0.114032 0.13687,1.130691 -0.45278,1.312924 0.12045,2.045716 1.97893,2.529265 1.43897,0.374446 2.61623,1.343144 2.61623,2.152657 0,0.80953 1.20957,2.043224 2.68782,2.741566 1.47838,0.698341 2.68795,2.032862 2.68795,2.965615 0,0.932755 0.42801,1.695933 0.95128,1.695933 1.34206,0 -189.48547,199.46995 -185.90592,204.4934 1.63388,2.29305 -0.88045,0.35044 -0.3402,0.004 0.54024,-0.34614 2.1417,-1.73108 2.01564,-1.2257 -0.40693,1.63067 -7.02759,-1.45693 -3.6847,1.25361 1.78635,1.44842 3.8726,-1.57242 18.90513,-12.23494 25.41248,-18.02498 -20.03046,12.91076 -19.51088,12.91076 0.51957,0 229.83788,-159.11581 230.56962,-157.28437 0.73173,1.83144 1.75802,3.05583 2.28074,2.7209 0.52259,-0.33492 1.01083,-0.0776 1.08474,0.5715 0.0739,0.64926 0.19477,1.70038 0.26881,2.33582 0.0739,0.63544 0.66672,1.51324 1.31757,1.95068 1.78088,1.19713 6.20085,8.85881 12.15081,21.06259 19.20205,39.3845 28.20075,79.37133 28.17489,125.19851 -0.026,44.94974 -8.85321,84.80016 -27.55307,124.37854 -34.53876,73.10198 -98.50908,127.69894 -174.68945,149.09305 -26.86705,7.54522 -61.04733,10.96063 -89.23661,8.91686 z"
         style="fill:#ffffff;fill-opacity:1;fill-rule:nonzero;stroke:#ffffff;stroke-width:5;stroke-miterlimit:4;stroke-dasharray:none;stroke-opacity:1" />
      <text
         transform="scale(0.8737084,1.1445466)"
         sodipodi:linespacing="125%"
         id="text5592"
         y="701.3288"
         x="109.58456"
         style="font-style:normal;font-weight:normal;font-size:78.08167267px;line-height:125%;font-family:sans-serif;letter-spacing:0px;word-spacing:0px;fill:#ffffff;fill-opacity:1;stroke:#ffffff;stroke-width:1px;stroke-linecap:butt;stroke-linejoin:miter;stroke-opacity:1"
         xml:space="preserve"><tspan
           style="font-style:normal;font-variant:normal;font-weight:normal;font-stretch:normal;font-size:78.08167267px;line-height:125%;font-family:'Segoe Print';-inkscape-font-specification:'Segoe Print, Normal';text-align:start;writing-mode:lr-tb;text-anchor:start;fill:#ffffff;fill-opacity:1;stroke:#ffffff;stroke-opacity:1"
           y="701.3288"
           x="109.58456"
           id="tspan5594"
           sodipodi:role="line">Tickets Répartis</tspan></text>
    </g>
  </g>
</svg>
